<?xml version="1.0" encoding="utf-8"?>
<!-- Generator: Adobe Illustrator 26.0.0, SVG Export Plug-In . SVG Version: 6.00 Build 0)  -->
<svg version="1.1" id="Layer_1" xmlns="http://www.w3.org/2000/svg" xmlns:xlink="http://www.w3.org/1999/xlink" x="0px" y="0px"
	 viewBox="0 0 864 864" style="enable-background:new 0 0 864 864;" xml:space="preserve">
<g>
	<path d="M421,190.8c-0.8-5.2-1.1-10.4-0.2-15.6c0.9-5,2.7-9.6,6.3-13.3c6.4-6.5,13.7-6,19,1.4c5.9,8.2,7.6,17.3,5.6,27.2
		c-1.4,6.9-2.9,13.8-4,20.7c-1.5,10,2.4,18.7,7.2,27.1c1.2,2,2.4,1.7,3.2-0.4c1.5-4.1,2-8.4,2.3-12.7c0.9-11.8,1.7-23.6,4-35.2
		c0.9-4.5,2.1-8.9,4.2-12.9c4-7.3,9.8-8.6,16.2-3.3c8.8,7.2,13.1,16.2,9.8,27.7c-1.7,5.9-3.4,11.8-5.2,17.6
		c-1.7,5.4-3.3,10.9-4.1,16.5c-0.3,2.3-1.5,5.2,1.1,6.9c2.2,1.4,4.4-0.2,6.4-1.3c1.6-0.8,3.2-1.8,4.8-2.6c6.7-3.1,15.9-0.5,20,5.5
		c2.7,4,1.6,7.8-1,11.3c-5.1,7-11.4,13-18.1,18.4c-3.9,3.1-7.7,6.4-10.8,10.4c-5,6.5-7.4,13.4-3.9,21.6c4.2,9.5,2.7,18.8-2.4,27.4
		c-3.6,6.1-4.1,11.5,0,17.7c4.7,7,4.2,14.7,0.3,22.1c-2.5,4.8-5.3,9.5-8.1,14.2c-3.8,6.6-6.4,13.5-7.7,21c-0.4,2.4-1.1,6,1.7,6.6
		c3,0.7,4.5-2.3,5-5.3c2.4-14.1,9-26,19.1-36.2c13.4-13.5,21.5-30.1,27.1-48.2c5.1-16.5,10.1-32.9,10.1-50.5
		c0-12.3,3.5-24.2,5.5-36.3c1.3-7.8,2.5-15.7,3.5-23.6c1.3-10.5,4.7-20.3,9.8-29.6c0.3-0.6,0.7-1.2,1.1-1.7c4-6.2,8.8-8.8,14-7.4
		c5.2,1.4,9.3,7.7,9.1,14.6c-0.2,6.7-2.6,12.9-4.9,19.1c-2.4,6.5-4,13-3.2,20c0.2,2.1,0.5,4.1,1.5,5.9c1.4,2.5,3.3,2.8,5.5,0.9
		c2.2-1.9,3-4.5,3.8-7.1c1.1-3.7,2.2-7.4,4.1-10.8c3.3-5.9,7.8-10.7,14.2-13.1c9.1-3.5,16.1,1.3,16.2,11c0,6.1-2,11.7-5.3,16.6
		c-4.4,6.6-9.2,13-13.8,19.5c-1.8,2.6-3.6,5.3-5.1,8.1c-1.4,2.7-0.7,3.7,2.3,3.9c4.2,0.2,8-1.5,11.6-3.4c8.1-4.2,15.8-9,24.3-12.2
		c3.7-1.4,7.2-2.5,11.2-1.2c8.3,2.8,11.6,9.9,7.8,17.8c-2,4.2-5.2,7.4-8.9,10.2c-8.6,6.5-18,11.4-28.3,14.7
		c-4.4,1.4-8.5,3.3-11.7,6.7c-0.9,0.9-2.5,1.9-1.7,3.3c0.5,1,2.1,0.4,3.2,0.1c3.5-0.9,7-1.8,10.6-2.7c2.4-0.6,4.8-1.5,7.2-1.9
		c5.6-1,10.4,0.4,13.7,5.4c2.8,4.2,2.1,9.6-1.9,14.5c-6.4,7.9-15.3,11.1-24.9,12.9c-4,0.7-8.1,1.1-12.2,1.4
		c-10.4,0.6-18.1,5.6-23.2,14.5c-2.4,4.1-4.3,8.5-6.3,12.8c-5.9,13.3-15.1,23.8-27.9,30.7c-8.5,4.5-13.4,11-15.3,20.4
		c-2.1,10.2-7,19.2-13.5,27.2c-6.7,8.3-8.7,17.8-8.4,28.1c0,0.6,0,1.5,0.4,1.9c0.9,0.8,1.6-0.1,2.3-0.6c7.7-5.4,14.9-11.2,17.1-21.1
		c0.6-2.4,2.1-4.5,3-6.9c2.6-6.9,7.3-12.2,14-15.2c9.7-4.4,15.2-11.8,17.6-22c2.6-11.5,9.4-19.5,20.7-23.3c7.2-2.4,10.3-7.1,11-14.6
		c0.8-9.9,6.4-16.2,16.3-18.5c1.5-0.4,3.1-0.9,4.6-1.2c11.6-2.1,20.6-8.1,27.2-17.8c5.3-7.7,11.2-14.9,18.2-21.1
		c3.6-3.1,7.4-6,11.7-8.2c2.9-1.5,5.9-2.5,9-3c4.4-0.7,8.8-0.7,12,3c3.3,3.8,2,8.2,0.2,12.2c-4.2,9.4-10.2,17.7-15.7,26.3
		c-1.9,3.1-4.2,6-5.2,9.5c-1.2,4.1,0.1,5.6,4.3,4.8c3.2-0.6,5.9-2.3,8.3-4.4c7.1-6.5,14.9-11.8,24-15.2c4.7-1.8,8.5-5.2,11.9-9
		c2.5-2.8,5.4-4.9,9.1-5.7c6.1-1.4,11,1.5,12.5,7.5c1.9,7.2,1.2,18.8-8.3,24.9c-3.4,2.2-6.8,4.5-10.3,6.6c-6.8,4-12.2,9.4-17.4,15.2
		c-3.6,4-3.2,7.2,1.2,10.3c3.5,2.4,7.4,4.4,11.2,6.5c9.2,5,15.1,13,19,22.4c2.6,6.1-0.3,10.7-7,11.8c-3.9,0.7-7.7-0.1-11.3-1.6
		c-4.4-1.9-8.7-3.9-13-5.9c-4-1.9-8.1-2.9-12.5-2.5c-0.6,0-1.5,0.3-1.6,0.7c-0.3,0.8,0.7,0.9,1.2,1.3c7,5.6,8.3,11.9,4,19.7
		c-1.9,3.4-4.6,6.2-7.4,8.8c-5.4,5.2-10.5,10.7-15.2,16.6c-1.3,1.6-2.4,3.3-3.5,5c-0.6,0.9-1.4,2-0.8,3.1c0.8,1.5,2.4,1,3.6,0.8
		c3.1-0.5,6.3-0.9,9.4-1.7c12.7-3.2,24.6,0.8,35.7,5.7c9.2,4.1,12.2,13.8,12.9,23.4c0.4,5.8-5.7,9.7-12.9,8.9
		c-6.1-0.7-12.1-1.8-18.2-2.9c-4.2-0.7-8.4-1.9-12.8-1.9c-4.2,0-8.1,1.1-11.7,3.2c-2,1.2-2.7,2.6,0,3.8c3.1,1.4,6.2,2.7,9.4,3.9
		c7.6,2.7,14.5,6.6,21,11.2c3,2.1,5.6,4.7,7.1,8.1c2.6,5.6,0.9,10.6-4.8,12.9c-7.9,3.2-15.9,3.8-23.8-0.2c-4.2-2.2-8.4-4.5-12.4-7.1
		c-12.6-8.4-25.4-6.9-38.2-0.7c-3.3,1.6-6.3,3.6-9.4,5.5c-11.6,7.2-23.5,7.7-35.5,1.1c-2.6-1.4-5.2-2.8-8.1-3.5
		c-5.6-1.5-10.3-0.3-14.1,4.2c-1.8,2.1-3.5,4.2-5.2,6.3c-10.2,13.1-23.2,20.1-40.1,19c-4.3-0.3-8.7-0.2-12.8,1.1
		c-9.1,2.8-16.1,8.3-20.7,16.7c-2.3,4.2-4.4,8.5-6.5,12.8c-3.3,7-7.1,13.7-12.6,19.3c-7.5,7.7-8.1,18-10.2,27.7
		c-0.6,2.6-0.7,5.4-1.2,8.1c-1.1,5.5-5.9,6.9-10.1,3.1c-2.1-1.9-3-4.5-4.2-7c-3.7-8-7.6-16-12.7-23.3c-12.5-17.7-29.5-29.4-49-37.8
		c-24.4-10.5-49.9-18.3-75.4-25.7c-8.7-2.6-17.4-5.1-25.4-9.6c-4.8-2.7-9.3-5.7-12.8-10c-4-4.9-4.1-9.7-0.6-15
		c0.4-0.6,0.8-1.1,1.2-1.7c4.3-6,4.4-6.1,0-11.7c-3.4-4.4-5.5-9.4-6.6-14.8c-1.6-8,2.7-13.6,10.8-13.6c7.7,0,15.4,0.9,22.8,3.3
		c6.4,2,11.7,5.9,16.2,10.9c6.4,7.1,12.2,14.7,17.6,22.6c3.2,4.7,6.7,9.2,10.5,13.4c3.4,3.7,7.3,6.8,11.6,9.4
		c0.7,0.4,1.9,0.9,2.5,0.7c1.1-0.5,0.4-1.6,0-2.4c-8.9-19.1-16.6-38.9-31-55c-4.1-4.6-8.5-8.8-13.4-12.6c-7.7-5.9-16.5-8.5-26-9.2
		c-6.3-0.4-11.5,1.5-15.4,6.8c-3.5,4.8-6.7,9.7-9.7,14.8c-2.1,3.5-4.1,7.1-6.9,10.1c-5.4,5.7-11.9,8.2-19.7,6.4
		c-6.6-1.6-9.3-6.2-8-12.8c0.9-4.6,3.4-8.4,5.7-12.3c4.6-7.8,4.6-7.9-4.3-9.3c-14-2.2-22.1-11-26.3-23.7
		c-2.9-8.8,3.4-17.2,12.7-17.4c2.2,0,4.5,0.4,6.8,0.7c0.9,0.1,1.7,0.5,2.6,0.8c26.7,6.9,28.2,6.8,53.9-3.8c4.4-1.8,8.9-3.4,13.5-4.6
		c0.8-0.2,1.8-0.6,1.8-1.6c0-0.4-1-0.9-1.5-1.2c-8.8-4.3-17-9.6-25.4-14.6c-17.2-10.3-27.4-26.1-35.5-43.7
		c-1.7-3.7-2.6-7.7-2.1-11.9c1.1-8.4,7.3-11.7,14.6-7.6c4.6,2.5,8.2,6.4,12.5,9.5c2.2,1.6,4.5,5,7.6,1.9c2.7-2.7-0.5-5-1.8-7.1
		c-4.9-8-8.8-16.4-11.6-25.3c-3.2-10.3-0.5-16.5,9.1-21.2c12.5-6.2,25.6-2.1,33.4,10.3c3.3,5.3,5.3,11.2,5.6,17.4
		c0.8,17.8,8.5,32.8,18.6,46.8c9.4,13,17.1,26.8,20.5,42.7c2.8,12.8,9.2,23.6,19.5,32c3.7,3,7,6.5,10.3,10
		c11.2,12,19.3,25.8,22.9,42c2.9,13.1,7.7,25.6,11.9,38.3c4.8,14.2,14.3,25.2,24,36c0.6,0.7,1.4,1.2,2.2,1.6
		c0.5,0.3,1.4,0.5,1.9,0.3c0.8-0.4,0.4-1.1,0-1.7c-1.3-2.4-2.6-4.8-3.9-7.2c-2.2-4.3-3.5-8.8-3.6-13.7c-0.2-7.6-2.1-14.9-6.1-21.4
		c-6.5-10.7-8.5-21.9-4.9-34c4.3-14.6-0.8-26.4-11.3-36.3c-6.6-6.2-13.6-12.1-20.3-18.2c-3.2-2.9-6.3-5.9-8.9-9.4
		c-4.6-6.2-7.4-13-7.3-20.8c0-5.2-0.2-10.4-0.9-15.6c-1.9-15.2-8.8-27.5-20.2-37.5c-5.7-5-10.8-10.3-15-16.7
		c-4.3-6.6-7.1-13.7-7.6-21.6c-0.5-8.1-2.8-15.5-6.7-22.7c-9.3-17.3-14.6-35.6-13.3-55.6c0.3-4.3-0.1-8.6-0.2-12.9
		c-0.1-3.7,0.3-7.3,1.8-10.7c2.4-5.2,6.7-6.7,11.8-3.9c4.1,2.3,7,5.8,9.4,9.7c4.1,6.4,7,13.3,9.8,20.2c3.2,7.8,6.7,15.4,11.2,22.6
		c0.7,1.1,1.4,2.8,3,2.2c0.8-0.3,1.4-1.7,1.8-2.7c0.9-2.6,0.9-5.4,0.5-8.1c-0.8-6.8-1.5-13.5-2.5-20.3c-0.6-4.6-0.3-9.1,1.1-13.5
		c1-3.1,2.5-6.1,6.1-6.7c3.4-0.6,5.5,1.9,7.2,4.3c5.6,7.8,9.6,16.5,12.4,25.6c1.2,3.9,2.3,7.8,3.5,11.8c0.2,0.6,0.7,1.6,1.1,1.6
		c1.2,0.1,1-1.1,1.2-1.9c0.4-2,0.7-4,0.9-6.1c0.2-2.3,0.8-4.5,1.9-6.5c1.4-2.7,3.2-5,6.7-5.1c3.3-0.1,5.6,1.7,7.1,4.4
		c3.2,5.9,4.8,12.2,5.1,18.9c0.3,6.9-1,13.6-2.5,20.2c-1.8,7.8-3.4,15.5-2.1,23.6c0.5,2.9,1.2,5.8,2.6,8.4c1.3,2.4,2.4,2.4,3.7-0.1
		c3.5-6.5,4.8-13.7,5.9-20.9c1.9-11.9,3.2-23.9,5-35.8c1.3-8.8-1.6-17.1-2.8-25.6c-0.2-1.8-2.2-3.4-3.5-4.9
		c-4.4-5.2-8.3-10.8-11.4-16.9c-3.8-7.2-5.4-14.9-5.1-23c0.1-1.6,0.1-3.2,0.5-4.7c0.9-3.4,2.4-6.5,6.3-7.4c4-1,7.2,0.6,9.5,3.8
		c1.6,2.2,2.8,4.7,4,7.1c3.1,6.6,6.5,13,10.9,18.9c2.1,2.9,4.3,6.2,8.7,5.4c3.5-0.7,6.5-5.2,6.8-10c0.1-0.9,0.1-1.8,0.1-2.7
		C421,196.7,421,193.7,421,190.8z M573,474.7C573,474.7,573,474.7,573,474.7c6.1-0.5,12.2-1.3,18.3-1.6c11.8-0.6,20.7-6.1,27.6-15.3
		c2.6-3.4,4.7-7.2,6.8-11c3.4-6,7.5-11.4,12.6-16c4.2-3.8,8.5-7.5,12.6-11.4c2-1.9,5.1-2.9,5.8-6c-2.8-0.7-5.3,0.9-8,1.1
		c-8.4,0.8-16.7,1.7-25.1,2.7c-10.3,1.3-19.1,5.2-25.5,13.9c-5.2,6.9-11.6,12.7-18.3,18.2c-5.3,4.3-10.4,8.8-15,13.8
		c-1.7,1.9-3.3,3.8-3.8,6.3c-0.8,3.5,0.4,5.3,3.9,5.5C567.6,475.2,570.3,474.8,573,474.7z M410.3,390.7c-0.1,3.2-0.2,5.5-0.3,7.8
		c-0.7,10.8,3.3,20,10.1,28.1c2.1,2.5,2.7,2.4,4.1-0.6c2.4-5.3,3.3-10.8,2.8-16.6c-0.7-8.4-2.8-16.5-5.2-24.6
		c-2.4-8.1-2.7-16.1-0.3-24.2c1.7-5.7,4.2-11,7.1-16.2c1.9-3.4,3.6-6.8,5-10.4c1.9-5.2,1.7-10.2-0.5-15.3c-2-4.6-5-8.6-8.2-12.5
		c-1.9-2.4-2.8-1.2-3.5,0.9c-2.9,10-6.5,19.8-10.7,29.4c-3.6,8.2-4.3,16.5-2.7,25.3C409.9,371.7,411.8,381.6,410.3,390.7z
		 M453.2,546.1c0.6,7,1.1,14,1.7,21c0.1,0.9-0.2,2,0.7,2.4c1.1,0.5,1.5-0.8,1.9-1.5c2.6-5.1,6.3-9.4,10-13.7c3.3-3.8,6-8,8-12.6
		c2.7-6.1,6.2-11.7,11.1-16.2c4.4-4.1,5.7-8.9,5.6-14.7c-0.2-8.3-3.7-15.9-4.4-24.1c0-0.3-0.4-0.6-0.7-0.9c-0.5,0.4-1.2,0.7-1.5,1.2
		c-4.7,8.4-11.8,14.9-17.8,22.4c-1.8,2.3-3.6,4.6-5.5,6.9C455,525,452.1,534.9,453.2,546.1z M426.2,537.6
		c0.3,10.5,3.4,20.5,6.6,30.4c0.2,0.6,0.4,1.5,1.2,1.3c0.3-0.1,0.6-1.1,0.5-1.6c-0.9-10.4-1.6-20.7-2.7-31.1
		c-0.4-3.8-1.5-7.5-2.4-11.3c-0.1-0.6-0.7-1.1-1.1-1.6c-0.3,0.6-0.6,1.2-0.8,1.8C426.5,529.5,426.2,533.5,426.2,537.6z"/>
</g>
</svg>
