<?xml version="1.0" encoding="utf-8"?>
<!-- Generator: Adobe Illustrator 26.0.0, SVG Export Plug-In . SVG Version: 6.00 Build 0)  -->
<svg version="1.1" id="Layer_1" xmlns="http://www.w3.org/2000/svg" xmlns:xlink="http://www.w3.org/1999/xlink" x="0px" y="0px"
	 viewBox="0 0 864 864" style="enable-background:new 0 0 864 864;" xml:space="preserve">
<g>
	<path d="M493.5,511c5.4-4.2,10.2-7.5,14.4-11.3c5.5-4.9,5.7-8.3,2.1-14.7c-0.3-0.6-0.7-1.2-1.1-1.8c-7.9-10.6-6.7-21.1,0.6-31.4
		c3.6-5.1,7.6-9.9,11.2-15c6.2-9,6.1-14.5-0.2-23.5c-3.1-4.6-6.7-8.9-9.3-13.8c-7.9-14.7-4.9-25.5,9.3-34.1
		c4.7-2.9,9.9-5.1,14.6-7.9c4-2.3,8-4.8,11.5-7.7c4.7-4,5.4-8.2,2.6-13.6c-1.6-3-3.7-5.8-5.8-8.6c-3.1-4.1-6.3-8-9.5-12
		c-0.9-1.1-1.7-2.2-2.3-3.4c-1.5-2.7-1.6-5.4,1-7.5c2.3-1.9,5-1.6,7,0.3c6.3,5.8,14.4,8.2,21.6,12.3c6,3.4,12,7.1,17,11.8
		c9.2,8.6,10.3,18,3.9,28.8c-3.4,5.7-8,10.7-12.1,16c-3.1,4-6.5,7.9-9.4,12c-3.3,4.7-3.5,10-1,15.2c2,4.2,4.1,8.3,6.4,12.3
		c5.8,10.1,5.9,20.2,0.6,30.4c-2.6,4.9-5.4,9.7-7.7,14.7c-3.2,6.7-6.3,13.4-9,20.3c-2.9,7.1-1.9,14.1,2.3,20.5
		c1.6,2.5,3.3,5.1,4.9,7.5c5.3,8,6.1,16.5,2.2,25.1c-2.7,6.1-6.4,11.8-9.7,17.5c-1.6,2.8-3.8,5.3-5.3,8.1c-2.2,4-1,6,3.7,6.2
		c6.4,0.3,11.8-2.3,16.1-6.9c7.4-8,10.9-17.6,11.1-28.4c0.1-5.5-0.1-11.1-0.3-16.7c-0.4-10.4,3.7-18.4,12-24.4
		c4.3-3.1,8.7-6.1,12.9-9.3c5.5-4.2,6-5.9,3.8-12.5c-2.5-7.8-4.1-15.6-3.4-23.9c1.4-16.6,13.7-25.3,29.6-20.4
		c5.9,1.8,11.5,4.8,17,7.7c5.8,2.9,11.3,6.4,17,9.4c2.8,1.5,5.8,2.6,9.6,4.3c-1.5-6.7-2.8-12.4-4.2-18.1c-1.7-7.2-3.5-14.3-5-21.5
		c-0.6-2.9-1.4-5.9-1.2-8.9c0.4-5.7,5.6-8.9,11-6.9c4.7,1.7,8.8,4.5,10.9,9.1c2,4.4,4,9,4.8,13.6c1.5,9.3,4.9,17.8,8.8,26.2
		c2,4.4,4.2,8.9,5.1,13.6c2.7,14.5-6.3,28.5-23.9,26c-7.3-1-14.3-3.6-21.6-5.2c-3.1-0.7-6.4-0.9-9.6-1c-1-0.1-2.1,0.7-4.1,1.4
		c1.5,3.4,2.8,6.5,4.3,9.4c5.8,10.6,8.9,21.8,8.5,33.9c-0.4,11-5.3,19-15.4,23.5c-4.4,2-9,3.7-13.6,5.2c-4.3,1.4-7.3,4.1-8.7,8.3
		c-1.6,4.8-2.9,9.7-4.1,14.7c-1.5,6.1-2.3,12.3-4.1,18.2c-1.4,4.6-3.4,9.1-5.8,13.3c-9.2,16.3-23.3,23.8-42,22.8
		c-5.8-0.3-11.6-0.5-17.4-0.6c-11.7-0.2-20.4,5-26.1,15.3c-1,1.8-2.1,3.6-3,5.5c-7.5,16.2-21,23.3-38.1,24.9
		c-3.2,0.3-6.5,0.5-9.6,1.3c-7.6,1.9-12.3,7.4-13,15.2c-0.4,4.1-0.4,8.3-0.9,12.5c-1.4,11.8-7.8,18.3-19.4,20.1
		c-2.9,0.5-6.8,0.4-8.3,2.2c-2.6,3-3.7,7.3-5.4,11.1c-0.3,0.6-0.2,1.4-0.3,2.1c-0.9,6.2-2.5,8.6-6,8.9c-6.9,0.6-11-1.9-12.2-8.3
		c-0.7-3.8-0.9-7.8-0.4-11.6c1.1-8.3-2.9-13.8-11.4-14.6c-3.9-0.4-7.8-0.7-11.8-0.9c-9.9-0.7-16.4-5.8-19.7-15c-1.1-3-2-6.2-2.4-9.4
		c-0.6-4.7-3.1-7.6-7.4-9.2c-1.7-0.6-3.5-1.2-5.2-1.8c-12.5-4.7-18.5-14.2-17.2-27.6c0.5-4.8,1.7-9.6,2.6-14.3
		c1.4-7.3-0.1-10.5-7.3-12.4c-5.1-1.3-10.5-1.9-15.8-2.2c-10.7-0.5-21.1-2.4-31-6.7c-16.2-7-22.1-17.3-19.5-34.7
		c0.4-2.5,0.5-5.1,1-7.6c0.9-5-1.1-8.8-5.3-11c-3.4-1.8-7.2-3.1-11-4c-3.6-0.9-7.4-0.6-11-1.6c-5.7-1.6-11.7-3.1-16.9-5.9
		c-10.1-5.4-14.7-14.5-14.1-25.9c0.3-6.2,0.9-12.5,1.8-18.7c1.6-11.2-1.5-20.5-10.3-27.9c-4.1-3.4-7.8-7.2-11.6-10.9
		c-5.5-5.4-9.9-11.6-13.2-18.6c-6.7-14.2-3.7-28,2-41.6c1.1-2.7,3.2-4.6,6.4-4.6c3.5,0,5.3,2.2,6.7,5.2c1.9,4.2,3.5,8.6,6.1,12.3
		c5.9,8.2,14.1,13.3,23.8,15.8c7.3,1.9,13.9,5,19.5,10.2c7.7,7.2,11.8,15.9,11.3,26.5c-0.2,3.7-0.2,7.4-0.5,11.1
		c-0.6,8.1,3.2,13.3,10.7,15.8c7.4,2.5,15,4.6,23.5,7.1c-3.3-11.6-0.1-22.2,1-32.9c0.5-5.6-1.3-10-6.1-13.1
		c-4.1-2.7-8.2-5.3-12.1-8.1c-13.2-9.2-20.1-22.7-24.7-37.5c-2.1-6.9-0.1-13.3,4.5-18.8c5.6-6.6,12.3-11.9,19.7-16.2
		c6.4-3.7,12.9-7.3,19-11.4c8.8-5.9,10.4-13.9,4.3-22.7c-2.6-3.7-6-7-9.5-10c-3.9-3.2-8.4-5.8-12.5-8.8c-4.5-3.3-9.2-6.4-13.1-10.3
		c-12.8-12.6-12.9-32-0.5-44.9c3-3.2,6.5-5.9,9.9-8.7c12-9.9,13.6-17.1,6.4-30.8c-5.7-10.9-9.5-22.3-8.6-34.6
		c0.5-7.3,2.5-14.5,4.1-21.7c0.6-2.8,2.2-5.2,5.4-5.7c3.3-0.5,5.2,1.6,6.6,4.1c7.3,12.9,17.6,23,29.4,31.9
		c19.2,14.5,23.4,27.8,16.9,51c-1.6,5.6-3.3,11.1-4.9,16.6c-2.8,9.3-0.2,16.8,7.5,22.7c7.4,5.6,15.1,10.8,22.1,16.8
		c7.9,6.8,15.5,14,22.5,21.7c9.8,10.8,8.7,20.5-2.9,29.6c-4.2,3.3-8.9,5.9-13,9.3c-5.3,4.4-10.6,9-15.2,14.1
		c-4.1,4.5-3.4,6.5,1.9,9.8c3.6,2.2,7.3,3.9,10.9,6.2c12.9,8.2,17.7,19.7,14.2,34.5c-1.2,5.1-3.3,10.1-5,15.1
		c-1.6,4.8-3.6,9.5-4.8,14.5c-1.4,5.7,0.2,8,5.7,10c5.4,2,11,3.6,16.3,5.9c13.1,5.9,17.7,14.1,15.8,28.2c-0.8,5.9-2.4,11.8-3.8,17.6
		c-0.8,3.4-2,6.6-2.8,10c-2.9,11.5-0.5,17.5,9.2,24.4c4.5,3.2,8.7,6.8,13.7,10.6c5.4-7.8,11.3-15.9,16.6-24.4c2.8-4.4,1.6-9-2-12.7
		c-1.7-1.8-3.8-3.4-5.6-5.2c-8.9-8.4-12.1-18.4-8-30.2c2-5.7,4.2-11.3,6.1-17c4.2-12.7,1.3-23.1-8.9-31.7c-2.8-2.4-6.2-4.1-9-6.5
		c-4.9-4.2-10-8.3-14-13.3c-5.7-7-6.4-15.2-2.7-23.6c1.9-4.4,4.2-8.7,6.5-13.1c3.5-6.7,4.4-13.6,1.3-20.7c-4.7-10.9-1.9-20.3,6-28.6
		c3.5-3.7,7.3-7.1,10.7-10.9c2.6-2.9,5.1-6,7.3-9.3c3.6-5.3,4.2-11.1,2.1-17.2c-1.4-4.1-3-8.3-4.1-12.5c-2.3-8.6-1.3-17,3.2-24.8
		c4.1-7.2,10.2-11.2,18.5-11.7c4.2-0.3,8.3-0.5,12.4-1.2c9.9-1.7,14.2-10.5,9.2-19.3c-2-3.5-5.1-6.5-7.9-9.6
		c-3.9-4.3-8.4-8.1-11.8-12.7c-10.3-13.8-9.9-27.9,0.8-41.4c9.4-11.8,19.9-22.6,32.3-31.4c10.6-7.6,20-16.4,27.7-27
		c1.6-2.2,3.4-4.5,5.5-6.2c7.7-6.3,18.1-2.4,19.1,7.5c0.4,3.9-0.6,8.3-2.2,12c-2.1,5.1-5.1,9.9-8.2,14.5c-6.3,9.3-7.4,18.8-1.9,28.7
		c6.9,12.3,6.4,24.4-1.1,36.1c-5,7.9-4,15.3,0.6,22.8c2.8,4.5,5.6,9.1,8,13.8c9,18.1,5.2,33.2-11.3,44.8c-3.8,2.7-7.9,4.8-11.9,7.2
		c-1.4,0.8-2.8,1.6-4.1,2.5c-10.4,7.1-12,12.5-7.2,24.2c1.9,4.5,3.9,8.9,5.4,13.5c3.4,10.1,2.3,20.1-1.9,29.8
		c-2.2,5.1-4.8,10-7.4,14.9c-4.6,8.7-3.6,17,1.9,24.9c2.9,4.2,6.2,8.1,9.8,11.7c13.7,13.8,15.6,29.2,7.2,46.3
		c-2.6,5.2-4.7,10.5-7.2,15.8c-3.1,6.5-3,12.9,0.3,19.4C487.2,498.7,490.1,504.4,493.5,511z M296.5,518c-4.5,20.4-2,31.2,18.9,40.3
		c0.4-4.1,0.9-8.1,1.3-12.2c1.2-14.5-2.3-20.4-15.7-26.4C299.7,519.2,298.4,518.8,296.5,518z"/>
</g>
</svg>
