<?xml version="1.0" encoding="utf-8"?>
<!-- Generator: Adobe Illustrator 26.0.0, SVG Export Plug-In . SVG Version: 6.00 Build 0)  -->
<svg version="1.1" id="Layer_1" xmlns="http://www.w3.org/2000/svg" xmlns:xlink="http://www.w3.org/1999/xlink" x="0px" y="0px"
	 viewBox="0 0 864 864" style="enable-background:new 0 0 864 864;" xml:space="preserve">
<style type="text/css">
	.st0{fill:#FFFFFF;}
</style>
<g>
	<path d="M566.4,177.4c-1.8,20.5-4,40.8-5.3,61.2c-1,16.5-1.5,33.1-1.3,49.6c0.1,16.8,10.3,27.9,23.6,36.4
		c14.9,9.5,31.9,14.1,49,17.4c18.7,3.6,37.9,5.7,56.9,7.5c30.8,2.8,61.1,7.1,89.9,19c25.8,10.6,30.6,34.3,24,55.3
		c-2.5,8-7.9,14-14.5,18.9c-15.1,11.3-32.8,17.5-50.1,24.5c-37.6,15.3-75.4,30.2-113,45.4c-4.7,1.9-9.2,4.3-13.8,6.6
		c-14.4,7.1-23.9,25.1-20.1,42c5.6,25,11.1,50.1,15.7,75.4c5.3,29.5,7.6,59.3,5,89.3c-1,11.7-3.7,22.9-9.6,33.2
		c-7.5,13-18.1,17.7-32.8,14.9c-10.7-2-19.6-7.4-28-14c-26.5-20.9-48.3-46.1-68.3-73.1c-12.8-17.2-25.7-34.4-38.9-51.3
		c-4.2-5.4-9.3-10.1-14.1-15c-7.8-8-16.9-10.2-26.9-4.9c-16.9,9-34.3,17.4-50.1,28.1c-28.3,19.1-57,37.5-86.8,54.1
		c-6.8,3.8-13.5,7.7-20.6,10.6c-18.3,7.5-36.6,7.2-53.5-3.7c-16.8-10.9-24.3-34.4-17.7-54.4c6.6-20,16.9-38.2,28.5-55.7
		c21.2-32.1,42.7-64.1,63.7-96.4c4.7-7.3,7.7-15.8,10.8-23.9c2.5-6.3,1.1-12.9-2.4-18.3c-7.3-11.1-14.3-22.8-23.4-32.4
		c-18.4-19.4-38-37.6-57.1-56.3c-17.9-17.5-36.1-34.6-50.6-55.2c-6.1-8.8-10.8-18.1-10.5-29.3c0.2-11.4,4.9-20.3,14.1-26.9
		c13.2-9.5,28.2-12.1,44.1-11.2c21.6,1.3,42.1,7.5,62.7,13.8c34.3,10.4,68.7,20.4,103.2,30.4c13.1,3.8,23.5-0.5,32.5-10.6
		c18.3-20.7,32.2-44.4,45.5-68.4c10-18.2,18.2-37.3,27.9-55.6c7.2-13.6,14.9-27.1,23.5-39.9c8.2-12.3,20.8-19.3,35.1-22.7
		c14.7-3.5,26.6,2.3,36.3,13c8.1,8.9,12.1,19.8,13.6,31.5C564.1,149.8,565,163.7,566.4,177.4z M459.2,403.4
		c11.9-0.1,21.8-10.2,21.6-22c-0.1-11.7-10.4-21.9-22-21.8c-11.9,0.1-22.1,10.6-21.9,22.5C437.2,394,447.2,403.5,459.2,403.4z
		 M382.8,439.4c11.9,0,21.9-9.8,22-21.7c0.1-11.7-10-21.9-21.7-22.2c-11.8-0.2-22.2,10.2-22.2,22.1
		C360.9,429.5,370.8,439.3,382.8,439.4z M517.3,466.8c11.9-0.1,21.8-10.2,21.7-22c-0.1-11.7-10.4-21.9-22-21.9
		c-11.9,0.1-22.1,10.5-21.9,22.4C495.3,457.3,505.2,466.9,517.3,466.8z M390.6,518.6c11.9-0.1,21.8-10.2,21.6-22
		c-0.1-11.7-10.4-21.9-22-21.8c-11.9,0.1-22.1,10.6-21.9,22.5C368.6,509.1,378.5,518.7,390.6,518.6z M468.5,539.7
		c11.9,0,21.9-9.9,21.9-21.8c0-11.7-10.1-21.9-21.8-22.1c-11.8-0.1-22.2,10.3-22.1,22.2C446.5,530,456.5,539.7,468.5,539.7z
		 M485.6,293.1c9-0.1,16.5-7.7,16.3-16.6c-0.2-8.8-8-16.5-16.8-16.3c-8.9,0.2-16.4,7.9-16.2,16.8C469,286,476.5,293.2,485.6,293.1z
		 M297.3,386.1c9,0,16.5-7.3,16.6-16.3c0-8.8-7.7-16.5-16.5-16.6c-8.8-0.1-16.4,7.6-16.5,16.5C280.8,378.6,288.2,386,297.3,386.1z
		 M618.5,443.1c9,0,16.5-7.5,16.4-16.5c-0.1-8.8-7.9-16.5-16.7-16.4c-8.8,0.1-16.4,7.8-16.3,16.7C602,435.9,609.4,443.2,618.5,443.1
		z M313.3,581.5c9,0,16.5-7.5,16.4-16.4c-0.1-8.8-7.8-16.5-16.6-16.4c-8.8,0.1-16.4,7.7-16.4,16.6
		C296.7,574.2,304.2,581.5,313.3,581.5z M509.6,617.4c9,0,16.5-7.4,16.5-16.3c0-8.8-7.7-16.5-16.5-16.5c-8.8,0-16.4,7.6-16.5,16.5
		C493.1,610,500.5,617.4,509.6,617.4z M504.5,195.3c4.8,0,9-4.1,9.2-9c0.1-4.9-4.3-9.5-9.3-9.5c-4.8,0-9,4.2-9.1,9
		C495.1,191,499.4,195.4,504.5,195.3z M232.7,322.4c0-4.7-4.2-9.1-8.9-9.3c-4.9-0.2-9.5,4.2-9.5,9.2c0,4.9,4.1,9,8.9,9.2
		C228.2,331.8,232.7,327.5,232.7,322.4z M709,413.4c0.1-4.9-4.3-9.5-9.3-9.5c-4.8,0-9,4.2-9.1,9c-0.1,4.8,3.9,9.1,8.7,9.4
		C704.3,422.7,708.9,418.5,709,413.4z M244.4,642.1c5,0.1,9.4-4.2,9.4-9.3c0-4.8-4.3-9-9-9.2c-4.7-0.1-9.1,4-9.4,8.8
		C235.1,637.5,239.3,642,244.4,642.1z M552.7,676.1c-0.1-4.8-4.3-9-9.1-9.1c-4.9-0.1-9.4,4.4-9.3,9.4c0.1,5.1,4.6,9.3,9.6,9
		C548.8,685.2,552.8,680.9,552.7,676.1z"/>
	<g>
		<path class="st0" d="M459.2,403.4c-12.1,0.1-22-9.5-22.3-21.4c-0.3-11.9,10-22.4,21.9-22.5c11.6-0.1,21.9,10.1,22,21.8
			C481,393.3,471.1,403.3,459.2,403.4z"/>
		<path class="st0" d="M382.8,439.4c-12,0-21.9-9.8-21.9-21.7c0-11.9,10.4-22.4,22.2-22.1c11.7,0.2,21.8,10.5,21.7,22.2
			C404.7,429.5,394.8,439.4,382.8,439.4z"/>
		<path class="st0" d="M517.3,466.8c-12,0.1-22-9.5-22.3-21.4c-0.3-11.9,10-22.4,21.9-22.4c11.6-0.1,21.9,10.1,22,21.9
			C539.1,456.6,529.2,466.7,517.3,466.8z"/>
		<path class="st0" d="M390.6,518.6c-12.1,0.1-22-9.5-22.3-21.4c-0.3-11.9,10-22.4,21.9-22.5c11.6-0.1,21.9,10.1,22,21.8
			C412.3,508.4,402.4,518.5,390.6,518.6z"/>
		<path class="st0" d="M468.5,539.7c-12,0-21.9-9.7-22-21.6c-0.1-11.9,10.3-22.4,22.1-22.2c11.7,0.1,21.8,10.4,21.8,22.1
			C490.4,529.8,480.4,539.7,468.5,539.7z"/>
		<path class="st0" d="M485.6,293.1c-9.1,0.1-16.6-7.1-16.7-16.1c-0.1-8.9,7.4-16.6,16.2-16.8c8.7-0.2,16.6,7.5,16.8,16.3
			C502,285.5,494.6,293,485.6,293.1z"/>
		<path class="st0" d="M297.3,386.1c-9.1-0.1-16.5-7.4-16.4-16.4c0.1-8.9,7.7-16.5,16.5-16.5c8.8,0.1,16.5,7.8,16.5,16.6
			C313.8,378.8,306.3,386.1,297.3,386.1z"/>
		<path class="st0" d="M618.5,443.1c-9.1,0-16.6-7.2-16.6-16.2c-0.1-8.9,7.5-16.6,16.3-16.7c8.8-0.1,16.6,7.6,16.7,16.4
			C635,435.6,627.6,443.1,618.5,443.1z"/>
		<path class="st0" d="M313.3,581.5c-9.1,0-16.5-7.3-16.6-16.3c0-8.9,7.6-16.6,16.4-16.6c8.8-0.1,16.6,7.7,16.6,16.4
			C329.8,574,322.3,581.5,313.3,581.5z"/>
		<path class="st0" d="M509.6,617.4c-9.1,0-16.5-7.4-16.5-16.4c0-8.9,7.7-16.5,16.5-16.5c8.8,0,16.5,7.8,16.5,16.5
			C526.1,610,518.7,617.4,509.6,617.4z"/>
		<path class="st0" d="M504.5,195.3c-5.1,0-9.4-4.4-9.3-9.4c0.1-4.8,4.4-9,9.1-9c5,0,9.4,4.5,9.3,9.5
			C513.5,191.2,509.3,195.3,504.5,195.3z"/>
		<path class="st0" d="M232.7,322.4c0,5-4.5,9.3-9.5,9.2c-4.9-0.2-8.9-4.4-8.9-9.2c0-5,4.6-9.4,9.5-9.2
			C228.5,313.3,232.7,317.7,232.7,322.4z"/>
		<path class="st0" d="M709,413.4c-0.1,5-4.7,9.3-9.7,9c-4.9-0.3-8.9-4.6-8.7-9.4c0.1-4.8,4.4-9,9.1-9
			C704.7,404,709.2,408.5,709,413.4z"/>
		<path class="st0" d="M244.4,642.1c-5.1-0.1-9.3-4.6-9-9.6c0.3-4.8,4.7-8.9,9.4-8.8c4.8,0.1,9,4.4,9,9.2
			C253.9,637.9,249.5,642.2,244.4,642.1z"/>
		<path class="st0" d="M552.7,676.1c0.1,4.8-4,9.1-8.8,9.3c-5,0.2-9.5-4-9.6-9c-0.1-5,4.4-9.5,9.3-9.4
			C548.4,667.1,552.6,671.3,552.7,676.1z"/>
	</g>
</g>
</svg>
